PathFileType   4   (X/Y/Z)
DataRate	CameraRate	NumFrames	NumMarkers	Units	OrigDataRate	OrigDataStartFrame	OrigNumFrames
120.0	120.0	11	37	mm	120.0	78	206
Frame#	Time	midhip	hip_r	hip_l	knee_r	knee_l	ankle_r	ankle_l	midasis	asis_r	asis_l	psis_r	psis_l	epicondLat_r	epicondLat_l	epicondMed_r	epicondMed_l	malleolusLat_r	malleolusLat_l	malleolusMedv_r	malleolusMedv_l	neck	subclavicle_r	subclavicle_l	sternalnotch	xyphoidprocess	thighwand_r	thighwand_l	upperleg1_r	upperleg1_l	upperleg2_r	upperleg2_l	shankwand_r	shankwand_l	lowerleg1_r	lowerleg1_l	toe_r	toe_l
 	 	X1	Y1	Z1	X2	Y2	Z2	X3	Y3	Z3	X4	Y4	Z4	X5	Y5	Z5	X6	Y6	Z6	X7	Y7	Z7	X8	Y8	Z8	X9	Y9	Z9	X10	Y10	Z10	X11	Y11	Z11	X12	Y12	Z12	X13	Y13	Z13	X14	Y14	Z14	X15	Y15	Z15	X16	Y16	Z16	X17	Y17	Z17	X18	Y18	Z18	X19	Y19	Z19	X20	Y20	Z20	X21	Y21	Z21	X22	Y22	Z22	X23	Y23	Z23	X24	Y24	Z24	X25	Y25	Z25	X26	Y26	Z26	X27	Y27	Z27	X28	Y28	Z28	X29	Y29	Z29	X30	Y30	Z30	X31	Y31	Z31	X32	Y32	Z32	X33	Y33	Z33	X34	Y34	Z34	X35	Y35	Z35	X36	Y36	Z36	X37	Y37	Z37

	78	0.80000	1659.703	619.990	-182.413	1659.413	635.579	-130.938	1660.720	629.697	-248.229	1852.657	399.686	-104.178	1604.228	336.393	-223.167	2026.527	163.828	-73.340	1513.243	59.105	-217.958	1693.750	700.873	-192.630	1692.780	705.238	-105.611	1694.720	696.508	-279.649	1561.545	697.383	-144.648	1560.216	695.750	-227.800	1850.105	402.794	-58.354	1599.223	333.287	-270.804	1852.680	393.285	-144.993	1599.199	341.443	-182.774	2020.109	163.395	-40.463	1505.781	60.960	-249.535	2028.046	169.506	-100.254	1507.735	60.300	-183.976	1616.882	1024.201	-212.292	1711.411	957.234	-166.434	1707.061	949.953	-257.576	1695.261	967.427	-204.657	1735.282	831.268	-200.888	1884.312	545.532	-136.386	1674.677	401.155	-336.647	1797.477	542.908	-93.099	1683.031	459.976	-257.958	1845.317	469.527	-82.041	1662.478	380.587	-234.867	1987.331	247.958	20.487	1633.200	138.049	-192.398	1941.562	289.386	-44.936	1589.700	206.364	-217.270	2110.986	194.705	-68.906	1594.094	36.970	-216.766
	79	0.80833	1663.978	619.362	-182.259	1664.073	634.781	-130.670	1664.356	629.304	-247.987	1855.257	396.901	-104.665	1606.352	336.238	-223.001	2024.760	157.842	-74.576	1513.446	59.599	-217.581	1698.227	700.112	-192.424	1698.017	704.176	-105.367	1698.438	696.048	-279.482	1566.465	697.168	-143.344	1564.549	695.787	-226.491	1852.709	399.864	-58.831	1600.846	333.270	-270.592	1855.579	390.667	-145.790	1601.788	340.772	-182.642	2018.392	157.466	-41.689	1505.832	61.538	-249.117	2026.221	163.681	-101.887	1508.103	60.894	-183.529	1621.986	1023.901	-210.694	1716.740	956.639	-165.620	1711.675	949.560	-256.757	1700.310	966.925	-203.730	1740.083	830.697	-200.532	1888.302	542.500	-136.308	1676.027	400.850	-337.029	1801.437	540.396	-93.069	1684.957	459.363	-258.084	1848.783	466.616	-82.429	1664.689	380.262	-235.175	1987.248	242.553	19.436	1634.038	137.688	-192.591	1942.111	284.923	-45.800	1590.901	206.291	-217.094	2109.901	186.725	-70.264	1594.086	36.977	-216.668
	80	0.81667	1668.189	618.747	-182.062	1668.790	633.966	-130.415	1668.004	628.921	-247.749	1857.542	393.782	-105.141	1608.557	336.083	-222.831	2022.597	151.578	-75.871	1513.684	60.121	-217.228	1702.781	699.323	-192.231	1703.364	703.069	-105.132	1702.197	695.578	-279.330	1571.361	697.059	-141.855	1568.978	695.822	-225.162	1854.973	396.587	-59.298	1602.562	333.255	-270.371	1857.894	387.656	-146.750	1604.393	340.501	-182.403	2016.253	151.230	-42.979	1505.917	62.152	-248.721	2023.977	157.652	-103.390	1508.487	61.439	-183.101	1627.159	1023.538	-209.076	1722.205	955.991	-164.813	1716.338	949.121	-255.956	1705.462	966.382	-202.805	1745.006	830.082	-200.221	1892.238	539.049	-136.150	1677.459	400.557	-337.383	1805.383	537.514	-92.808	1687.335	458.874	-258.405	1851.965	463.200	-82.805	1666.969	379.842	-235.451	1986.686	236.787	18.358	1634.916	137.319	-192.807	1942.211	280.180	-46.674	1592.177	206.182	-216.862	2108.404	178.336	-71.664	1594.100	36.986	-216.577
	81	0.82500	1672.363	618.132	-181.826	1673.568	633.134	-130.164	1671.684	628.545	-247.504	1859.506	390.337	-105.609	1610.826	335.937	-222.666	2020.034	145.065	-77.234	1513.961	60.672	-216.908	1707.420	698.508	-192.039	1708.820	701.916	-104.899	1706.021	695.100	-279.180	1576.235	697.048	-140.198	1573.483	695.856	-223.819	1856.888	392.970	-59.759	1604.363	333.251	-270.153	1859.860	384.260	-147.752	1607.014	340.340	-182.158	2013.685	144.714	-44.343	1506.043	62.800	-248.357	2021.462	151.253	-104.541	1508.885	61.990	-182.730	1632.526	1023.059	-207.404	1727.732	955.245	-164.074	1721.122	948.627	-255.204	1710.718	965.796	-201.888	1749.992	829.383	-200.005	1896.115	535.175	-135.895	1678.977	400.271	-337.700	1809.264	534.293	-92.473	1689.923	458.367	-258.778	1854.929	459.316	-83.154	1669.310	379.378	-235.730	1985.627	230.679	17.247	1635.829	136.954	-193.045	1941.939	275.070	-47.573	1593.531	206.110	-216.725	2106.484	169.555	-73.129	1594.142	36.998	-216.495
	82	0.83333	1676.532	617.509	-181.559	1678.421	632.280	-129.913	1675.430	628.174	-247.248	1861.150	386.589	-106.074	1613.147	335.806	-222.515	2017.060	138.326	-78.668	1514.277	61.252	-216.629	1712.160	697.664	-191.839	1714.382	700.715	-104.656	1709.938	694.613	-279.021	1581.107	697.101	-138.428	1578.060	695.885	-222.457	1858.454	389.033	-60.219	1606.234	333.266	-269.947	1861.704	380.472	-148.612	1609.707	340.265	-181.959	2010.673	137.945	-45.785	1506.215	63.482	-248.034	2018.694	144.522	-105.549	1509.289	62.609	-182.408	1637.971	1022.581	-205.679	1733.376	954.443	-163.357	1725.976	948.102	-254.469	1716.074	965.175	-200.981	1755.049	828.637	-199.848	1899.927	530.887	-135.539	1680.580	399.995	-337.985	1813.006	530.703	-92.207	1692.679	457.938	-259.185	1857.659	455.079	-83.426	1671.735	378.923	-236.033	1984.063	224.249	16.099	1636.769	136.605	-193.306	1941.268	269.601	-48.526	1594.976	206.119	-216.684	2104.115	160.398	-74.684	1594.210	37.010	-216.421
	83	0.84167	1680.742	616.870	-181.261	1683.370	631.397	-129.661	1679.288	627.802	-246.980	1862.489	382.568	-106.541	1615.507	335.692	-222.386	2013.650	131.380	-80.174	1514.631	61.864	-216.397	1717.021	696.794	-191.621	1720.056	699.467	-104.394	1713.985	694.121	-278.849	1586.021	697.169	-136.613	1582.715	695.904	-221.073	1859.683	384.809	-60.681	1608.162	333.308	-269.760	1863.234	376.344	-149.410	1612.518	340.130	-181.763	2007.196	130.947	-47.305	1506.432	64.199	-247.760	2015.443	137.660	-106.770	1509.683	63.294	-182.135	1643.507	1022.201	-203.867	1739.220	953.625	-162.621	1730.846	947.562	-253.737	1721.518	964.524	-200.081	1760.140	827.859	-199.728	1903.667	526.208	-135.089	1682.265	399.733	-338.247	1816.608	526.790	-91.896	1695.489	457.509	-259.542	1860.098	450.486	-83.625	1674.257	378.472	-236.322	1981.999	217.526	14.907	1637.727	136.279	-193.585	1940.201	263.952	-49.526	1596.410	206.138	-216.663	2101.259	150.884	-76.353	1594.301	37.019	-216.351
	84	0.85000	1685.014	616.213	-180.945	1688.446	630.474	-129.409	1683.306	627.421	-246.701	1863.549	378.312	-107.018	1617.901	335.599	-222.280	2009.769	124.238	-81.754	1515.019	62.510	-216.219	1722.025	695.895	-191.382	1725.850	698.167	-104.103	1718.201	693.623	-278.661	1591.046	697.191	-134.828	1587.463	695.906	-219.660	1860.603	380.339	-61.157	1610.135	333.380	-269.596	1864.269	372.036	-150.291	1615.360	339.973	-181.613	2003.228	123.741	-48.903	1506.696	64.950	-247.540	2011.648	130.648	-108.371	1510.085	64.046	-181.920	1649.202	1021.777	-202.007	1745.155	952.766	-161.931	1735.806	947.045	-253.022	1727.045	963.854	-199.177	1765.304	827.068	-199.715	1907.322	521.171	-134.562	1684.031	399.487	-338.496	1820.112	522.695	-91.425	1698.304	457.053	-259.911	1862.261	445.597	-83.804	1676.819	378.053	-236.645	1979.457	210.546	13.662	1638.696	135.983	-193.878	1938.770	258.037	-50.614	1597.804	206.169	-216.679	2097.873	141.039	-78.156	1594.411	37.025	-216.281
	85	0.85833	1689.502	615.521	-180.661	1693.676	629.503	-129.156	1687.523	627.021	-246.414	1864.359	373.860	-107.519	1620.322	335.523	-222.198	2005.373	116.907	-83.408	1515.437	63.189	-216.098	1727.194	694.967	-191.117	1731.777	696.816	-103.780	1722.612	693.119	-278.454	1596.262	697.115	-133.126	1592.321	695.886	-218.215	1861.250	375.666	-61.660	1612.144	333.483	-269.452	1864.903	367.611	-151.219	1618.115	339.902	-181.548	1998.743	116.349	-50.575	1507.006	65.736	-247.382	2007.305	123.423	-110.190	1510.538	64.815	-181.772	1654.920	1021.182	-200.085	1751.113	951.894	-161.266	1740.865	946.584	-252.339	1732.646	963.173	-198.257	1770.710	826.334	-199.823	1910.883	515.821	-133.983	1685.880	399.257	-338.741	1823.521	518.473	-90.919	1701.169	456.605	-260.350	1864.144	440.534	-83.993	1679.350	377.650	-237.021	1976.477	203.347	12.353	1639.674	135.721	-194.177	1936.829	251.813	-51.796	1599.210	206.257	-216.751	2093.907	130.890	-80.109	1594.536	37.026	-216.210
	86	0.86667	1694.298	614.782	-180.434	1699.081	628.476	-128.902	1691.962	626.592	-246.116	1864.952	369.254	-108.056	1622.773	335.463	-222.138	2000.412	109.391	-85.138	1515.881	63.902	-216.039	1732.543	694.004	-190.826	1737.851	695.408	-103.427	1727.235	692.600	-278.225	1601.734	696.908	-131.534	1597.308	695.840	-216.738	1861.660	370.835	-62.201	1614.191	333.615	-269.328	1865.353	362.980	-151.998	1620.837	339.799	-181.479	1993.710	108.791	-52.320	1507.360	66.554	-247.290	2002.318	116.028	-111.950	1511.085	65.559	-181.702	1660.667	1020.530	-198.118	1757.138	951.024	-160.562	1745.932	946.117	-251.607	1738.319	962.483	-197.313	1776.201	825.612	-199.896	1914.340	510.207	-133.383	1687.819	399.044	-338.983	1826.777	514.077	-90.502	1704.092	456.092	-260.669	1865.778	435.326	-84.126	1681.900	377.242	-237.348	1973.109	195.971	10.972	1640.658	135.493	-194.475	1934.361	245.524	-52.856	1600.602	206.358	-216.827	2089.314	120.464	-82.220	1594.676	37.025	-216.138
	87	0.87500	1699.392	613.987	-180.244	1704.671	627.385	-128.646	1696.626	626.125	-245.809	1865.356	364.531	-108.642	1625.256	335.417	-222.096	1994.837	101.711	-86.953	1516.349	64.647	-216.043	1738.078	692.997	-190.510	1744.084	693.938	-103.050	1732.073	692.057	-277.970	1607.499	696.558	-130.044	1602.461	695.759	-215.239	1861.871	365.890	-62.794	1616.283	333.776	-269.221	1865.560	358.243	-152.730	1623.690	339.616	-181.367	1988.103	101.101	-54.142	1507.757	67.405	-247.266	1996.648	108.425	-113.664	1511.627	66.357	-181.692	1666.473	1019.896	-196.112	1763.244	950.162	-159.804	1751.030	945.626	-250.775	1744.060	961.780	-196.341	1781.723	824.884	-199.855	1917.690	504.374	-132.800	1689.859	398.843	-339.221	1829.944	509.558	-90.073	1707.109	455.547	-260.861	1867.228	430.009	-84.237	1684.576	376.833	-237.612	1969.399	188.456	9.507	1641.648	135.300	-194.767	1931.596	239.201	-53.890	1602.031	206.490	-216.889	2084.051	109.791	-84.494	1594.833	37.026	-216.069
	88	0.88333	1704.720	613.128	-180.061	1710.436	626.223	-128.389	1701.499	625.610	-245.492	1865.591	359.726	-109.290	1627.779	335.385	-222.072	1988.626	93.926	-88.876	1516.840	65.423	-216.109	1743.795	691.935	-190.173	1750.474	692.393	-102.660	1737.117	691.477	-277.685	1613.572	696.076	-128.617	1607.794	695.643	-213.726	1861.910	360.868	-63.452	1618.430	333.963	-269.131	1865.405	353.589	-153.691	1626.634	340.169	-181.080	1981.910	93.337	-56.061	1508.197	68.286	-247.307	1990.421	100.591	-115.510	1512.027	67.222	-181.729	1672.338	1019.290	-193.995	1769.424	949.295	-159.026	1756.260	945.154	-249.918	1749.871	961.062	-195.328	1787.361	824.170	-199.812	1920.932	498.367	-132.267	1692.012	398.646	-339.450	1833.097	505.014	-89.582	1710.873	455.166	-261.415	1868.516	424.625	-84.467	1687.391	376.412	-237.881	1965.376	180.840	7.937	1642.649	135.141	-195.055	1928.295	232.490	-55.223	1603.491	206.676	-216.986	2078.134	98.985	-86.941	1595.009	37.037	-216.013
